<mxfile host="app.diagrams.net" modified="2024-07-11T12:22:58.458Z" agent="Mozilla/5.0 (Macintosh; Intel Mac OS X 10_15_7) AppleWebKit/537.36 (KHTML, like Gecko) Chrome/126.0.0.0 Safari/537.36" etag="xv7EpS1C9VXqK1REh_yJ" version="24.6.4" type="github">
  <diagram name="Page-1" id="qnp9Axf9fSBe4Yi9hoHO">
    <mxGraphModel dx="1173" dy="621" grid="1" gridSize="10" guides="1" tooltips="1" connect="1" arrows="1" fold="1" page="1" pageScale="1" pageWidth="850" pageHeight="1100" math="0" shadow="0">
      <root>
        <mxCell id="0" />
        <mxCell id="1" parent="0" />
        <mxCell id="7GuMput4pS_t5xVzel_N-1" value="Men&#39;s Preference Lists" style="shape=table;startSize=30;container=1;collapsible=0;childLayout=tableLayout;resizeLast=0;resizeLastRow=0;fontStyle=1;fontSize=18;strokeWidth=2;" vertex="1" parent="1">
          <mxGeometry x="160" y="440" width="280" height="150" as="geometry" />
        </mxCell>
        <mxCell id="7GuMput4pS_t5xVzel_N-2" value="" style="shape=tableRow;horizontal=0;startSize=40;swimlaneHead=0;swimlaneBody=0;strokeColor=inherit;top=0;left=0;bottom=0;right=0;collapsible=0;dropTarget=0;fillColor=none;points=[[0,0.5],[1,0.5]];portConstraint=eastwest;fontSize=15;strokeWidth=2;" vertex="1" parent="7GuMput4pS_t5xVzel_N-1">
          <mxGeometry y="30" width="280" height="30" as="geometry" />
        </mxCell>
        <mxCell id="7GuMput4pS_t5xVzel_N-3" value="Rank1" style="shape=partialRectangle;html=1;whiteSpace=wrap;connectable=0;strokeColor=inherit;overflow=hidden;fillColor=none;top=0;left=0;bottom=0;right=0;pointerEvents=1;fontSize=15;strokeWidth=2;" vertex="1" parent="7GuMput4pS_t5xVzel_N-2">
          <mxGeometry x="40" width="80" height="30" as="geometry">
            <mxRectangle width="80" height="30" as="alternateBounds" />
          </mxGeometry>
        </mxCell>
        <mxCell id="7GuMput4pS_t5xVzel_N-4" value="Rank2" style="shape=partialRectangle;html=1;whiteSpace=wrap;connectable=0;strokeColor=inherit;overflow=hidden;fillColor=none;top=0;left=0;bottom=0;right=0;pointerEvents=1;fontSize=15;strokeWidth=2;" vertex="1" parent="7GuMput4pS_t5xVzel_N-2">
          <mxGeometry x="120" width="80" height="30" as="geometry">
            <mxRectangle width="80" height="30" as="alternateBounds" />
          </mxGeometry>
        </mxCell>
        <mxCell id="7GuMput4pS_t5xVzel_N-5" value="Rank3" style="shape=partialRectangle;html=1;whiteSpace=wrap;connectable=0;strokeColor=inherit;overflow=hidden;fillColor=none;top=0;left=0;bottom=0;right=0;pointerEvents=1;strokeWidth=2;resizeWidth=1;resizeHeight=1;fontSize=15;" vertex="1" parent="7GuMput4pS_t5xVzel_N-2">
          <mxGeometry x="200" width="80" height="30" as="geometry">
            <mxRectangle width="80" height="30" as="alternateBounds" />
          </mxGeometry>
        </mxCell>
        <mxCell id="7GuMput4pS_t5xVzel_N-6" value="M1" style="shape=tableRow;horizontal=0;startSize=40;swimlaneHead=0;swimlaneBody=0;strokeColor=inherit;top=0;left=0;bottom=0;right=0;collapsible=0;dropTarget=0;fillColor=none;points=[[0,0.5],[1,0.5]];portConstraint=eastwest;fontSize=15;strokeWidth=2;" vertex="1" parent="7GuMput4pS_t5xVzel_N-1">
          <mxGeometry y="60" width="280" height="30" as="geometry" />
        </mxCell>
        <mxCell id="7GuMput4pS_t5xVzel_N-7" value="W2" style="shape=partialRectangle;html=1;whiteSpace=wrap;connectable=0;overflow=hidden;top=0;left=0;bottom=0;right=0;pointerEvents=1;strokeColor=default;fillColor=none;fontSize=15;strokeWidth=2;" vertex="1" parent="7GuMput4pS_t5xVzel_N-6">
          <mxGeometry x="40" width="80" height="30" as="geometry">
            <mxRectangle width="80" height="30" as="alternateBounds" />
          </mxGeometry>
        </mxCell>
        <mxCell id="7GuMput4pS_t5xVzel_N-8" value="W1" style="shape=partialRectangle;html=1;whiteSpace=wrap;connectable=0;overflow=hidden;top=0;left=0;bottom=0;right=0;pointerEvents=1;fillColor=none;labelBackgroundColor=none;labelBorderColor=none;strokeColor=default;shadow=0;resizable=1;resizeWidth=0;metaEdit=0;backgroundOutline=0;fontSize=15;strokeWidth=2;" vertex="1" parent="7GuMput4pS_t5xVzel_N-6">
          <mxGeometry x="120" width="80" height="30" as="geometry">
            <mxRectangle width="80" height="30" as="alternateBounds" />
          </mxGeometry>
        </mxCell>
        <mxCell id="7GuMput4pS_t5xVzel_N-9" value="W3" style="shape=partialRectangle;html=1;whiteSpace=wrap;connectable=0;overflow=hidden;top=0;left=0;bottom=0;right=0;pointerEvents=1;fillColor=none;fontSize=15;strokeWidth=2;" vertex="1" parent="7GuMput4pS_t5xVzel_N-6">
          <mxGeometry x="200" width="80" height="30" as="geometry">
            <mxRectangle width="80" height="30" as="alternateBounds" />
          </mxGeometry>
        </mxCell>
        <mxCell id="7GuMput4pS_t5xVzel_N-10" value="M2" style="shape=tableRow;horizontal=0;startSize=40;swimlaneHead=0;swimlaneBody=0;strokeColor=inherit;top=0;left=0;bottom=0;right=0;collapsible=0;dropTarget=0;fillColor=none;points=[[0,0.5],[1,0.5]];portConstraint=eastwest;fontSize=15;strokeWidth=2;" vertex="1" parent="7GuMput4pS_t5xVzel_N-1">
          <mxGeometry y="90" width="280" height="30" as="geometry" />
        </mxCell>
        <mxCell id="7GuMput4pS_t5xVzel_N-11" value="W2" style="shape=partialRectangle;html=1;whiteSpace=wrap;connectable=0;overflow=hidden;top=0;left=0;bottom=0;right=0;pointerEvents=1;strokeOpacity=100;fillColor=none;fontSize=15;strokeWidth=2;" vertex="1" parent="7GuMput4pS_t5xVzel_N-10">
          <mxGeometry x="40" width="80" height="30" as="geometry">
            <mxRectangle width="80" height="30" as="alternateBounds" />
          </mxGeometry>
        </mxCell>
        <mxCell id="7GuMput4pS_t5xVzel_N-12" value="W1" style="shape=partialRectangle;html=1;whiteSpace=wrap;connectable=0;strokeColor=inherit;overflow=hidden;fillColor=none;top=0;left=0;bottom=0;right=0;pointerEvents=1;fontSize=15;strokeWidth=2;" vertex="1" parent="7GuMput4pS_t5xVzel_N-10">
          <mxGeometry x="120" width="80" height="30" as="geometry">
            <mxRectangle width="80" height="30" as="alternateBounds" />
          </mxGeometry>
        </mxCell>
        <mxCell id="7GuMput4pS_t5xVzel_N-13" value="W3" style="shape=partialRectangle;html=1;whiteSpace=wrap;connectable=0;strokeColor=inherit;overflow=hidden;fillColor=none;top=0;left=0;bottom=0;right=0;pointerEvents=1;fontSize=15;strokeWidth=2;" vertex="1" parent="7GuMput4pS_t5xVzel_N-10">
          <mxGeometry x="200" width="80" height="30" as="geometry">
            <mxRectangle width="80" height="30" as="alternateBounds" />
          </mxGeometry>
        </mxCell>
        <mxCell id="7GuMput4pS_t5xVzel_N-14" value="M3" style="shape=tableRow;horizontal=0;startSize=40;swimlaneHead=0;swimlaneBody=0;strokeColor=inherit;top=0;left=0;bottom=0;right=0;collapsible=0;dropTarget=0;fillColor=none;points=[[0,0.5],[1,0.5]];portConstraint=eastwest;fontSize=15;strokeWidth=2;" vertex="1" parent="7GuMput4pS_t5xVzel_N-1">
          <mxGeometry y="120" width="280" height="30" as="geometry" />
        </mxCell>
        <mxCell id="7GuMput4pS_t5xVzel_N-15" value="W2" style="shape=partialRectangle;html=1;whiteSpace=wrap;connectable=0;overflow=hidden;top=0;left=0;bottom=0;right=0;pointerEvents=1;fillColor=none;fontSize=15;strokeWidth=2;" vertex="1" parent="7GuMput4pS_t5xVzel_N-14">
          <mxGeometry x="40" width="80" height="30" as="geometry">
            <mxRectangle width="80" height="30" as="alternateBounds" />
          </mxGeometry>
        </mxCell>
        <mxCell id="7GuMput4pS_t5xVzel_N-16" value="W1" style="shape=partialRectangle;html=1;whiteSpace=wrap;connectable=0;overflow=hidden;top=0;left=0;bottom=0;right=0;pointerEvents=1;fillColor=none;fontSize=15;strokeWidth=2;" vertex="1" parent="7GuMput4pS_t5xVzel_N-14">
          <mxGeometry x="120" width="80" height="30" as="geometry">
            <mxRectangle width="80" height="30" as="alternateBounds" />
          </mxGeometry>
        </mxCell>
        <mxCell id="7GuMput4pS_t5xVzel_N-17" value="W3" style="shape=partialRectangle;html=1;whiteSpace=wrap;connectable=0;strokeColor=inherit;overflow=hidden;fillColor=none;top=0;left=0;bottom=0;right=0;pointerEvents=1;fontSize=15;strokeWidth=2;" vertex="1" parent="7GuMput4pS_t5xVzel_N-14">
          <mxGeometry x="200" width="80" height="30" as="geometry">
            <mxRectangle width="80" height="30" as="alternateBounds" />
          </mxGeometry>
        </mxCell>
        <mxCell id="7GuMput4pS_t5xVzel_N-18" value="Women&#39;s Rank Matrix" style="shape=table;startSize=30;container=1;collapsible=0;childLayout=tableLayout;resizeLast=0;resizeLastRow=0;fontStyle=1;fontSize=18;strokeWidth=2;" vertex="1" parent="1">
          <mxGeometry x="480" y="440.5" width="280" height="149.4999999999999" as="geometry" />
        </mxCell>
        <mxCell id="7GuMput4pS_t5xVzel_N-19" value="" style="shape=tableRow;horizontal=0;startSize=40;swimlaneHead=0;swimlaneBody=0;strokeColor=inherit;top=0;left=0;bottom=0;right=0;collapsible=0;dropTarget=0;fillColor=none;points=[[0,0.5],[1,0.5]];portConstraint=eastwest;fontSize=15;strokeWidth=2;" vertex="1" parent="7GuMput4pS_t5xVzel_N-18">
          <mxGeometry y="30" width="280" height="30" as="geometry" />
        </mxCell>
        <mxCell id="7GuMput4pS_t5xVzel_N-20" value="M1" style="shape=partialRectangle;html=1;whiteSpace=wrap;connectable=0;strokeColor=inherit;overflow=hidden;fillColor=none;top=0;left=0;bottom=0;right=0;pointerEvents=1;fontSize=15;strokeWidth=2;" vertex="1" parent="7GuMput4pS_t5xVzel_N-19">
          <mxGeometry x="40" width="80" height="30" as="geometry">
            <mxRectangle width="80" height="30" as="alternateBounds" />
          </mxGeometry>
        </mxCell>
        <mxCell id="7GuMput4pS_t5xVzel_N-21" value="M2" style="shape=partialRectangle;html=1;whiteSpace=wrap;connectable=0;strokeColor=inherit;overflow=hidden;fillColor=none;top=0;left=0;bottom=0;right=0;pointerEvents=1;fontSize=15;strokeWidth=2;" vertex="1" parent="7GuMput4pS_t5xVzel_N-19">
          <mxGeometry x="120" width="80" height="30" as="geometry">
            <mxRectangle width="80" height="30" as="alternateBounds" />
          </mxGeometry>
        </mxCell>
        <mxCell id="7GuMput4pS_t5xVzel_N-22" value="M3" style="shape=partialRectangle;html=1;whiteSpace=wrap;connectable=0;strokeColor=inherit;overflow=hidden;fillColor=none;top=0;left=0;bottom=0;right=0;pointerEvents=1;strokeWidth=2;resizeWidth=1;resizeHeight=1;fontSize=15;" vertex="1" parent="7GuMput4pS_t5xVzel_N-19">
          <mxGeometry x="200" width="80" height="30" as="geometry">
            <mxRectangle width="80" height="30" as="alternateBounds" />
          </mxGeometry>
        </mxCell>
        <mxCell id="7GuMput4pS_t5xVzel_N-23" value="W1" style="shape=tableRow;horizontal=0;startSize=40;swimlaneHead=0;swimlaneBody=0;strokeColor=inherit;top=0;left=0;bottom=0;right=0;collapsible=0;dropTarget=0;fillColor=none;points=[[0,0.5],[1,0.5]];portConstraint=eastwest;fontSize=15;strokeWidth=2;" vertex="1" parent="7GuMput4pS_t5xVzel_N-18">
          <mxGeometry y="60" width="280" height="29" as="geometry" />
        </mxCell>
        <mxCell id="7GuMput4pS_t5xVzel_N-24" value="Rank3" style="shape=partialRectangle;html=1;whiteSpace=wrap;connectable=0;strokeColor=inherit;overflow=hidden;fillColor=none;top=0;left=0;bottom=0;right=0;pointerEvents=1;fontSize=15;strokeWidth=2;" vertex="1" parent="7GuMput4pS_t5xVzel_N-23">
          <mxGeometry x="40" width="80" height="29" as="geometry">
            <mxRectangle width="80" height="29" as="alternateBounds" />
          </mxGeometry>
        </mxCell>
        <mxCell id="7GuMput4pS_t5xVzel_N-25" value="Rank2" style="shape=partialRectangle;html=1;whiteSpace=wrap;connectable=0;strokeColor=inherit;overflow=hidden;fillColor=none;top=0;left=0;bottom=0;right=0;pointerEvents=1;fontSize=15;strokeWidth=2;" vertex="1" parent="7GuMput4pS_t5xVzel_N-23">
          <mxGeometry x="120" width="80" height="29" as="geometry">
            <mxRectangle width="80" height="29" as="alternateBounds" />
          </mxGeometry>
        </mxCell>
        <mxCell id="7GuMput4pS_t5xVzel_N-26" value="Rank1" style="shape=partialRectangle;html=1;whiteSpace=wrap;connectable=0;strokeColor=inherit;overflow=hidden;fillColor=none;top=0;left=0;bottom=0;right=0;pointerEvents=1;fontSize=15;strokeWidth=2;" vertex="1" parent="7GuMput4pS_t5xVzel_N-23">
          <mxGeometry x="200" width="80" height="29" as="geometry">
            <mxRectangle width="80" height="29" as="alternateBounds" />
          </mxGeometry>
        </mxCell>
        <mxCell id="7GuMput4pS_t5xVzel_N-27" value="W2" style="shape=tableRow;horizontal=0;startSize=40;swimlaneHead=0;swimlaneBody=0;strokeColor=inherit;top=0;left=0;bottom=0;right=0;collapsible=0;dropTarget=0;fillColor=none;points=[[0,0.5],[1,0.5]];portConstraint=eastwest;fontSize=15;strokeWidth=2;" vertex="1" parent="7GuMput4pS_t5xVzel_N-18">
          <mxGeometry y="89" width="280" height="31" as="geometry" />
        </mxCell>
        <mxCell id="7GuMput4pS_t5xVzel_N-28" value="Rank2" style="shape=partialRectangle;html=1;whiteSpace=wrap;connectable=0;strokeColor=inherit;overflow=hidden;fillColor=none;top=0;left=0;bottom=0;right=0;pointerEvents=1;fontSize=15;strokeWidth=2;" vertex="1" parent="7GuMput4pS_t5xVzel_N-27">
          <mxGeometry x="40" width="80" height="31" as="geometry">
            <mxRectangle width="80" height="31" as="alternateBounds" />
          </mxGeometry>
        </mxCell>
        <mxCell id="7GuMput4pS_t5xVzel_N-29" value="Rank1" style="shape=partialRectangle;html=1;whiteSpace=wrap;connectable=0;strokeColor=inherit;overflow=hidden;fillColor=none;top=0;left=0;bottom=0;right=0;pointerEvents=1;fontSize=15;strokeWidth=2;" vertex="1" parent="7GuMput4pS_t5xVzel_N-27">
          <mxGeometry x="120" width="80" height="31" as="geometry">
            <mxRectangle width="80" height="31" as="alternateBounds" />
          </mxGeometry>
        </mxCell>
        <mxCell id="7GuMput4pS_t5xVzel_N-30" value="Rank3" style="shape=partialRectangle;html=1;whiteSpace=wrap;connectable=0;strokeColor=inherit;overflow=hidden;fillColor=none;top=0;left=0;bottom=0;right=0;pointerEvents=1;fontSize=15;strokeWidth=2;" vertex="1" parent="7GuMput4pS_t5xVzel_N-27">
          <mxGeometry x="200" width="80" height="31" as="geometry">
            <mxRectangle width="80" height="31" as="alternateBounds" />
          </mxGeometry>
        </mxCell>
        <mxCell id="7GuMput4pS_t5xVzel_N-31" value="W3" style="shape=tableRow;horizontal=0;startSize=40;swimlaneHead=0;swimlaneBody=0;strokeColor=inherit;top=0;left=0;bottom=0;right=0;collapsible=0;dropTarget=0;fillColor=none;points=[[0,0.5],[1,0.5]];portConstraint=eastwest;fontSize=15;strokeWidth=2;" vertex="1" parent="7GuMput4pS_t5xVzel_N-18">
          <mxGeometry y="120" width="280" height="29" as="geometry" />
        </mxCell>
        <mxCell id="7GuMput4pS_t5xVzel_N-32" value="Rank1" style="shape=partialRectangle;html=1;whiteSpace=wrap;connectable=0;strokeColor=inherit;overflow=hidden;fillColor=none;top=0;left=0;bottom=0;right=0;pointerEvents=1;fontSize=15;strokeWidth=2;" vertex="1" parent="7GuMput4pS_t5xVzel_N-31">
          <mxGeometry x="40" width="80" height="29" as="geometry">
            <mxRectangle width="80" height="29" as="alternateBounds" />
          </mxGeometry>
        </mxCell>
        <mxCell id="7GuMput4pS_t5xVzel_N-33" value="Rank3" style="shape=partialRectangle;html=1;whiteSpace=wrap;connectable=0;strokeColor=inherit;overflow=hidden;fillColor=none;top=0;left=0;bottom=0;right=0;pointerEvents=1;fontSize=15;strokeWidth=2;" vertex="1" parent="7GuMput4pS_t5xVzel_N-31">
          <mxGeometry x="120" width="80" height="29" as="geometry">
            <mxRectangle width="80" height="29" as="alternateBounds" />
          </mxGeometry>
        </mxCell>
        <mxCell id="7GuMput4pS_t5xVzel_N-34" value="Rank2" style="shape=partialRectangle;html=1;whiteSpace=wrap;connectable=0;strokeColor=inherit;overflow=hidden;fillColor=none;top=0;left=0;bottom=0;right=0;pointerEvents=1;fontSize=15;strokeWidth=2;" vertex="1" parent="7GuMput4pS_t5xVzel_N-31">
          <mxGeometry x="200" width="80" height="29" as="geometry">
            <mxRectangle width="80" height="29" as="alternateBounds" />
          </mxGeometry>
        </mxCell>
        <mxCell id="7GuMput4pS_t5xVzel_N-35" value="1" style="ellipse;whiteSpace=wrap;html=1;aspect=fixed;strokeColor=#314354;align=center;verticalAlign=middle;fontFamily=Helvetica;fontSize=15;fillColor=#000000;fontColor=#ffffff;fontStyle=1;strokeWidth=2;" vertex="1" parent="1">
          <mxGeometry x="810" y="437.5" width="15" height="15" as="geometry" />
        </mxCell>
        <mxCell id="7GuMput4pS_t5xVzel_N-36" value="2" style="ellipse;whiteSpace=wrap;html=1;aspect=fixed;strokeColor=#314354;align=center;verticalAlign=middle;fontFamily=Helvetica;fontSize=15;fillColor=#000000;fontColor=#ffffff;fontStyle=1;strokeWidth=2;" vertex="1" parent="1">
          <mxGeometry x="810" y="467.5" width="15" height="15" as="geometry" />
        </mxCell>
        <mxCell id="7GuMput4pS_t5xVzel_N-37" value="3" style="ellipse;whiteSpace=wrap;html=1;aspect=fixed;strokeColor=#314354;align=center;verticalAlign=middle;fontFamily=Helvetica;fontSize=15;fillColor=#000000;fontColor=#ffffff;fontStyle=1;strokeWidth=2;" vertex="1" parent="1">
          <mxGeometry x="810" y="497.5" width="15" height="15" as="geometry" />
        </mxCell>
        <mxCell id="7GuMput4pS_t5xVzel_N-38" value="4" style="ellipse;whiteSpace=wrap;html=1;aspect=fixed;strokeColor=#314354;align=center;verticalAlign=middle;fontFamily=Helvetica;fontSize=15;fillColor=#000000;fontColor=#ffffff;fontStyle=1;strokeWidth=2;" vertex="1" parent="1">
          <mxGeometry x="810" y="527.5" width="15" height="15" as="geometry" />
        </mxCell>
        <mxCell id="7GuMput4pS_t5xVzel_N-39" value="5" style="ellipse;whiteSpace=wrap;html=1;aspect=fixed;strokeColor=#314354;align=center;verticalAlign=middle;fontFamily=Helvetica;fontSize=15;fillColor=#000000;fontColor=#ffffff;fontStyle=1;strokeWidth=2;" vertex="1" parent="1">
          <mxGeometry x="810" y="557.5" width="15" height="15" as="geometry" />
        </mxCell>
        <mxCell id="7GuMput4pS_t5xVzel_N-40" value="6" style="ellipse;whiteSpace=wrap;html=1;aspect=fixed;strokeColor=#314354;align=center;verticalAlign=middle;fontFamily=Helvetica;fontSize=15;fillColor=#000000;fontColor=#ffffff;fontStyle=1;strokeWidth=2;" vertex="1" parent="1">
          <mxGeometry x="810" y="587.5" width="15" height="15" as="geometry" />
        </mxCell>
        <mxCell id="7GuMput4pS_t5xVzel_N-41" value="&lt;h1 style=&quot;font-size: 20px;&quot;&gt;&lt;span style=&quot;font-size: 20px; font-weight: 400;&quot;&gt;&amp;nbsp;M1 proposes to W2, and gets accepted&lt;/span&gt;&lt;/h1&gt;" style="text;strokeColor=none;align=left;fillColor=none;html=1;verticalAlign=middle;whiteSpace=wrap;rounded=0;fontFamily=Helvetica;fontSize=20;fontColor=default;" vertex="1" parent="1">
          <mxGeometry x="825" y="430" width="405" height="30" as="geometry" />
        </mxCell>
        <mxCell id="7GuMput4pS_t5xVzel_N-42" value="&lt;h1 style=&quot;font-size: 20px;&quot;&gt;&lt;span style=&quot;font-size: 20px; font-weight: 400;&quot;&gt;&amp;nbsp;M2 proposes to W2, and gets accepted&lt;/span&gt;&lt;/h1&gt;" style="text;strokeColor=none;align=left;fillColor=none;html=1;verticalAlign=middle;whiteSpace=wrap;rounded=0;fontFamily=Helvetica;fontSize=20;fontColor=default;" vertex="1" parent="1">
          <mxGeometry x="825" y="460" width="365" height="30" as="geometry" />
        </mxCell>
        <mxCell id="7GuMput4pS_t5xVzel_N-43" value="&lt;h1 style=&quot;font-size: 20px;&quot;&gt;&lt;span style=&quot;font-size: 20px; font-weight: 400;&quot;&gt;&amp;nbsp;M3 proposes to W2, and gets rejected&lt;/span&gt;&lt;/h1&gt;" style="text;strokeColor=none;align=left;fillColor=none;html=1;verticalAlign=middle;whiteSpace=wrap;rounded=0;fontFamily=Helvetica;fontSize=20;fontColor=default;" vertex="1" parent="1">
          <mxGeometry x="825" y="490" width="365" height="30" as="geometry" />
        </mxCell>
        <mxCell id="7GuMput4pS_t5xVzel_N-44" value="&lt;h1 style=&quot;font-size: 20px;&quot;&gt;&lt;span style=&quot;font-size: 20px; font-weight: 400;&quot;&gt;&amp;nbsp;M1 proposes to W1, and gets accepted&lt;/span&gt;&lt;/h1&gt;" style="text;strokeColor=none;align=left;fillColor=none;html=1;verticalAlign=middle;whiteSpace=wrap;rounded=0;fontFamily=Helvetica;fontSize=20;fontColor=default;" vertex="1" parent="1">
          <mxGeometry x="825" y="520" width="365" height="30" as="geometry" />
        </mxCell>
        <mxCell id="7GuMput4pS_t5xVzel_N-45" value="&lt;h1 style=&quot;font-size: 20px;&quot;&gt;&lt;span style=&quot;font-size: 20px; font-weight: 400;&quot;&gt;&amp;nbsp;M3 proposes to W1, and gets accepted&lt;/span&gt;&lt;/h1&gt;" style="text;strokeColor=none;align=left;fillColor=none;html=1;verticalAlign=middle;whiteSpace=wrap;rounded=0;fontFamily=Helvetica;fontSize=20;fontColor=default;" vertex="1" parent="1">
          <mxGeometry x="825" y="550" width="365" height="30" as="geometry" />
        </mxCell>
        <mxCell id="7GuMput4pS_t5xVzel_N-46" value="&lt;h1 style=&quot;font-size: 20px;&quot;&gt;&lt;span style=&quot;font-size: 20px; font-weight: 400;&quot;&gt;&amp;nbsp;M1 proposes to W3, and gets accepted&lt;/span&gt;&lt;/h1&gt;" style="text;strokeColor=none;align=left;fillColor=none;html=1;verticalAlign=middle;whiteSpace=wrap;rounded=0;fontFamily=Helvetica;fontSize=20;fontColor=default;" vertex="1" parent="1">
          <mxGeometry x="825" y="580" width="365" height="30" as="geometry" />
        </mxCell>
        <mxCell id="7GuMput4pS_t5xVzel_N-47" value="&lt;h1 style=&quot;font-size: 20px;&quot;&gt;&lt;span style=&quot;font-size: 20px;&quot;&gt;GS Execution Progress&lt;/span&gt;&lt;/h1&gt;" style="text;strokeColor=none;align=center;fillColor=none;html=1;verticalAlign=middle;whiteSpace=wrap;rounded=0;fontFamily=Helvetica;fontSize=20;fontColor=default;fontStyle=1" vertex="1" parent="1">
          <mxGeometry x="880" y="399" width="230" height="30" as="geometry" />
        </mxCell>
        <mxCell id="7GuMput4pS_t5xVzel_N-48" value="1" style="ellipse;whiteSpace=wrap;html=1;aspect=fixed;strokeColor=#314354;align=center;verticalAlign=middle;fontFamily=Helvetica;fontSize=15;fillColor=#000000;fontColor=#ffffff;fontStyle=1;strokeWidth=2;" vertex="1" parent="1">
          <mxGeometry x="200" y="507.75" width="15" height="15" as="geometry" />
        </mxCell>
        <mxCell id="7GuMput4pS_t5xVzel_N-49" value="2" style="ellipse;whiteSpace=wrap;html=1;aspect=fixed;strokeColor=#314354;align=center;verticalAlign=middle;fontFamily=Helvetica;fontSize=15;fillColor=#000000;fontColor=#ffffff;fontStyle=1;strokeWidth=2;" vertex="1" parent="1">
          <mxGeometry x="200" y="539" width="15" height="15" as="geometry" />
        </mxCell>
        <mxCell id="7GuMput4pS_t5xVzel_N-50" value="3" style="ellipse;whiteSpace=wrap;html=1;aspect=fixed;strokeColor=#314354;align=center;verticalAlign=middle;fontFamily=Helvetica;fontSize=15;fillColor=#000000;fontColor=#ffffff;fontStyle=1;strokeWidth=2;" vertex="1" parent="1">
          <mxGeometry x="200" y="568.5" width="15" height="15" as="geometry" />
        </mxCell>
        <mxCell id="7GuMput4pS_t5xVzel_N-51" value="4" style="ellipse;whiteSpace=wrap;html=1;aspect=fixed;strokeColor=#314354;align=center;verticalAlign=middle;fontFamily=Helvetica;fontSize=15;fillColor=#000000;fontColor=#ffffff;fontStyle=1;strokeWidth=2;" vertex="1" parent="1">
          <mxGeometry x="280" y="507.5" width="15" height="15" as="geometry" />
        </mxCell>
        <mxCell id="7GuMput4pS_t5xVzel_N-52" value="5" style="ellipse;whiteSpace=wrap;html=1;aspect=fixed;strokeColor=#314354;align=center;verticalAlign=middle;fontFamily=Helvetica;fontSize=15;fillColor=#000000;fontColor=#ffffff;fontStyle=1;strokeWidth=2;" vertex="1" parent="1">
          <mxGeometry x="280" y="568.5" width="15" height="15" as="geometry" />
        </mxCell>
        <mxCell id="7GuMput4pS_t5xVzel_N-53" value="6" style="ellipse;whiteSpace=wrap;html=1;aspect=fixed;strokeColor=#314354;align=center;verticalAlign=middle;fontFamily=Helvetica;fontSize=15;fillColor=#000000;fontColor=#ffffff;fontStyle=1;strokeWidth=2;" vertex="1" parent="1">
          <mxGeometry x="360" y="507.5" width="15" height="15" as="geometry" />
        </mxCell>
        <mxCell id="7GuMput4pS_t5xVzel_N-54" value="1" style="ellipse;whiteSpace=wrap;html=1;aspect=fixed;strokeColor=#314354;align=center;verticalAlign=middle;fontFamily=Helvetica;fontSize=15;fillColor=#000000;fontColor=#ffffff;fontStyle=1;strokeWidth=2;" vertex="1" parent="1">
          <mxGeometry x="520" y="539" width="15" height="15" as="geometry" />
        </mxCell>
        <mxCell id="7GuMput4pS_t5xVzel_N-55" value="2" style="ellipse;whiteSpace=wrap;html=1;aspect=fixed;strokeColor=#314354;align=center;verticalAlign=middle;fontFamily=Helvetica;fontSize=15;fillColor=#000000;fontColor=#ffffff;fontStyle=1;strokeWidth=2;" vertex="1" parent="1">
          <mxGeometry x="600" y="539" width="15" height="15" as="geometry" />
        </mxCell>
        <mxCell id="7GuMput4pS_t5xVzel_N-56" value="3" style="ellipse;whiteSpace=wrap;html=1;aspect=fixed;strokeColor=#314354;align=center;verticalAlign=middle;fontFamily=Helvetica;fontSize=15;fillColor=#000000;fontColor=#ffffff;fontStyle=1;spacing=0;strokeWidth=2;" vertex="1" parent="1">
          <mxGeometry x="680" y="539" width="15" height="15" as="geometry" />
        </mxCell>
        <mxCell id="7GuMput4pS_t5xVzel_N-57" value="6" style="ellipse;whiteSpace=wrap;html=1;aspect=fixed;strokeColor=#314354;align=center;verticalAlign=middle;fontFamily=Helvetica;fontSize=15;fillColor=#000000;fontColor=#ffffff;fontStyle=1;strokeWidth=2;" vertex="1" parent="1">
          <mxGeometry x="680" y="507.5" width="15" height="15" as="geometry" />
        </mxCell>
        <mxCell id="7GuMput4pS_t5xVzel_N-58" value="5" style="ellipse;whiteSpace=wrap;html=1;aspect=fixed;strokeColor=#314354;align=center;verticalAlign=middle;fontFamily=Helvetica;fontSize=15;fillColor=#000000;fontColor=#ffffff;fontStyle=1;strokeWidth=2;" vertex="1" parent="1">
          <mxGeometry x="520" y="568.5" width="15" height="15" as="geometry" />
        </mxCell>
        <mxCell id="7GuMput4pS_t5xVzel_N-59" value="4" style="ellipse;whiteSpace=wrap;html=1;aspect=fixed;strokeColor=#314354;align=center;verticalAlign=middle;fontFamily=Helvetica;fontSize=15;fillColor=#000000;fontColor=#ffffff;fontStyle=1;strokeWidth=2;" vertex="1" parent="1">
          <mxGeometry x="520" y="507.5" width="15" height="15" as="geometry" />
        </mxCell>
        <mxCell id="7GuMput4pS_t5xVzel_N-63" value="" style="endArrow=none;html=1;rounded=0;strokeWidth=4;" edge="1" parent="1">
          <mxGeometry width="50" height="50" relative="1" as="geometry">
            <mxPoint x="120" y="390" as="sourcePoint" />
            <mxPoint x="1240" y="390" as="targetPoint" />
          </mxGeometry>
        </mxCell>
        <mxCell id="7GuMput4pS_t5xVzel_N-65" value="" style="endArrow=none;html=1;rounded=0;strokeWidth=4;" edge="1" parent="1">
          <mxGeometry width="50" height="50" relative="1" as="geometry">
            <mxPoint x="120" y="630" as="sourcePoint" />
            <mxPoint x="1240" y="630" as="targetPoint" />
          </mxGeometry>
        </mxCell>
      </root>
    </mxGraphModel>
  </diagram>
</mxfile>
